<svg width="83" height="48" viewBox="0 0 83 48" fill="none" xmlns="http://www.w3.org/2000/svg">
<g clip-path="url(#clip0_323_258)">
<path d="M5.53931 9.83137C6.24149 8.62891 7.03437 7.48212 7.91102 6.40104C8.77464 5.33268 9.73971 4.35102 10.7926 3.4699C11.8054 2.61952 12.9068 1.88123 14.0775 1.26785C15.1793 0.684008 16.3715 0.290788 17.6038 0.104731C19.4105 -0.178848 21.2605 0.0862014 22.9159 0.865797C24.5853 1.65022 26.1011 2.80227 27.4632 4.32195C28.8254 5.84162 29.9636 7.66949 30.878 9.80555C31.8062 11.9708 32.43 14.2549 32.7312 16.5924C33.1225 19.4993 33.1579 22.4433 32.8366 25.3588C32.5163 28.249 31.9619 30.8269 31.1734 33.0924C30.6695 34.8258 29.9247 36.4794 28.961 38.0043C27.9445 39.6426 26.7387 41.1548 25.3685 42.5093C23.9962 43.873 22.4434 45.0409 20.7538 45.9801C19.119 46.9028 17.33 47.5183 15.4747 47.7961C12.9801 48.1617 10.8286 48.0351 9.02027 47.4162C7.21197 46.7974 5.69497 45.8851 4.46928 44.6793C3.22962 43.4567 2.2578 41.9881 1.61588 40.3674C0.943117 38.708 0.483473 36.9695 0.248007 35.1937C-0.0409674 32.9407 -0.0820708 30.6626 0.125439 28.4006C0.330662 26.0558 0.693474 23.7276 1.2114 21.4318C1.70197 19.2536 2.34334 17.1123 3.13083 15.0236C3.79076 13.2297 4.59629 11.4931 5.53931 9.83137ZM17.415 26.4371C16.0241 26.6542 14.6073 26.6443 13.2195 26.4076C11.975 26.2042 10.7822 25.759 9.70788 25.0969C8.6771 24.4425 7.8042 23.5665 7.15232 22.5322C6.46675 21.4666 6.02468 20.1814 5.82612 18.6765C5.75258 18.1158 5.70355 17.549 5.66801 16.981C5.63988 16.354 5.67108 15.7258 5.76116 15.1047C5.26368 16.5937 4.86205 18.1133 4.55876 19.6539C4.24416 21.2277 3.99903 22.8158 3.82334 24.4183C3.65101 25.9902 3.56509 27.5705 3.56595 29.1519C3.55951 30.5905 3.64713 32.028 3.82825 33.4551C4.01469 34.9063 4.35238 36.3337 4.83576 37.7142C5.26274 38.9775 5.9286 40.1464 6.79687 41.1568C7.62916 42.1104 8.68646 42.8396 9.87212 43.2777C11.0913 43.7441 12.5478 43.8531 14.2417 43.6047C17.0927 43.1867 19.5105 42.067 21.4953 40.2457C23.496 38.4009 25.1005 36.1659 26.2106 33.6777C27.388 31.0556 28.1676 28.2715 28.5234 25.4179C28.9039 22.6227 28.9179 19.7896 28.5651 16.9908C28.3699 15.5323 28.053 14.0928 27.6177 12.6875C27.2035 11.3228 26.5955 10.025 25.8122 8.83424C25.0521 7.69021 24.1116 6.67782 23.0274 5.8367C21.9403 4.99203 20.6496 4.42031 19.1567 4.11539C18.8935 4.06329 18.6268 4.03041 18.3588 4.01703C18.0763 4.00943 17.7937 4.02712 17.5143 4.0699C16.3107 4.24694 15.2129 4.87399 14.2209 5.95104C13.1926 7.08033 12.3506 8.36701 11.7266 9.76252C11.0549 11.227 10.5611 12.7671 10.2558 14.3498C9.94321 15.9482 9.86967 17.3584 10.0315 18.5744C10.212 19.9351 10.5887 20.9793 11.1615 21.7072C11.6786 22.3904 12.3596 22.9314 13.141 23.2797C13.9263 23.6091 14.7579 23.814 15.6059 23.8871C16.5047 23.9691 17.3627 24.0219 18.1798 24.0457C18.8286 24.1433 19.1874 24.4494 19.256 24.9642C19.3614 25.7584 18.9463 26.2244 18.0107 26.3621L17.415 26.4371Z" fill="#596064"/>
<path d="M45.1556 14.6299C45.0542 16.1514 44.866 17.6657 44.5918 19.1656C44.2862 20.9361 43.8903 22.7279 43.4041 24.541C42.9325 26.3113 42.3412 28.0473 41.6342 29.7369C40.9397 31.3853 40.1838 32.6967 39.3667 33.6713C39.5203 34.5677 39.7403 35.4513 40.0249 36.3148C40.1563 36.7329 40.3728 37.1191 40.6609 37.4488C40.9489 37.7786 41.302 38.0447 41.698 38.2303C43.1124 37.7206 44.4062 36.9223 45.4976 35.8857C46.6086 34.8173 47.5583 33.5921 48.3167 32.2488C48.5238 32.0398 48.7101 31.9242 48.8768 31.8996C48.9859 31.8813 49.0974 31.8849 49.2051 31.91C49.3128 31.9351 49.4145 31.9813 49.5044 32.0459C49.6002 32.119 49.6796 32.2115 49.7375 32.3174C49.7954 32.4233 49.8304 32.5403 49.8402 32.6607C49.8585 32.806 49.8434 32.9536 49.7961 33.0922C49.4004 33.9105 48.9457 34.6986 48.4356 35.4504C47.8733 36.2965 47.2415 37.094 46.5468 37.8344C45.8851 38.5483 45.145 39.1848 44.3405 39.7316C43.6529 40.2193 42.8644 40.545 42.0338 40.6844C40.6447 40.8885 39.428 40.2488 38.3837 38.7652C37.3394 37.2816 36.606 34.973 36.1836 31.8394C36.012 30.5492 35.9196 28.8279 35.9066 26.6754C35.8967 24.4575 36.0515 22.242 36.3699 20.0471C36.6779 17.8475 37.2157 15.6864 37.9743 13.5996C38.7195 11.5701 39.7638 10.0127 41.1072 8.92746C41.501 8.58566 41.8802 8.38812 42.2446 8.33484C43.1729 8.20205 43.8629 8.49181 44.3148 9.2041C44.7615 9.91207 45.0489 10.7093 45.1568 11.5402C45.2323 12.1008 45.2651 12.6664 45.2549 13.232C45.2353 13.7656 45.2059 14.2316 45.1556 14.6299ZM39.9023 18.975C38.8474 22.9096 38.5307 27.0067 38.9683 31.0574C39.3385 30.2952 39.6404 29.5015 39.8705 28.6857C40.1009 27.8709 40.3121 27.0398 40.5041 26.1922C40.7248 25.307 40.9589 24.268 41.2065 23.0754C41.454 21.8828 41.6808 20.6607 41.8867 19.409C42.0918 18.1508 42.2389 16.9025 42.328 15.6639C42.4202 14.5747 42.4021 13.479 42.274 12.3934C41.6301 13.3698 41.1398 14.4397 40.8204 15.5656C40.496 16.6959 40.1899 17.8324 39.9023 18.975Z" fill="#596064"/>
<path d="M48.8597 27.2607C49.1865 26.6787 49.4999 26.366 49.7998 26.3225C50.1642 26.2684 50.3901 26.5729 50.4776 27.2361C50.44 28.9844 50.3934 30.6086 50.3378 32.1086C50.2823 33.6086 50.3154 34.8131 50.4371 35.7221C50.5654 36.6975 50.8146 37.1758 51.1848 37.157C51.4504 37.2292 51.7283 37.2435 51.9999 37.1988C52.7958 37.0816 53.6586 36.7061 54.5885 36.0725C55.4858 35.4718 56.2618 34.7063 56.8757 33.8164C57.0106 33.7392 57.1559 33.6821 57.3071 33.6467C57.4188 33.6288 57.5329 33.635 57.642 33.6649C57.7511 33.6948 57.8525 33.7477 57.9396 33.8201C58.0313 33.8916 58.1079 33.9807 58.1649 34.0823C58.222 34.1838 58.2583 34.2957 58.2717 34.4115C58.2812 34.6445 58.2237 34.8754 58.1063 35.0766C56.6085 36.7897 55.2847 38.0234 54.135 38.7775C52.9853 39.5316 51.9795 39.9725 51.1174 40.1004C50.1221 40.2471 49.3561 40.0131 48.8192 39.3984C48.2824 38.7836 47.9441 37.9529 47.8043 36.9061C47.5502 34.9897 47.5739 33.2533 47.8754 31.6967C48.177 30.1402 48.505 28.6615 48.8597 27.2607ZM50.8293 17.266C51.012 17.4781 51.1337 17.7361 51.1811 18.0123C51.2275 18.3066 51.1689 18.6079 51.0157 18.8631C50.9522 18.9798 50.8626 19.0802 50.7539 19.1564C50.6452 19.2325 50.5204 19.2824 50.3893 19.302C50.1246 19.3414 49.866 19.2467 49.6171 19.0168C49.3955 18.8374 49.2451 18.5845 49.193 18.3037C49.1555 18.0288 49.2272 17.7501 49.3928 17.5279C49.4673 17.417 49.5639 17.3229 49.6766 17.2516C49.7893 17.1802 49.9156 17.1332 50.0474 17.1135C50.3179 17.0631 50.5973 17.1176 50.8293 17.266Z" fill="#596064"/>
<path d="M65.1442 11.6975C65.0422 13.2189 64.854 14.7333 64.5804 16.2332C64.2739 18.0037 63.878 19.7955 63.3927 21.6086C62.9205 23.3777 62.3288 25.1124 61.6215 26.8008C60.9262 28.45 60.1707 29.7615 59.3552 30.7353C59.5049 31.6327 59.7217 32.5176 60.0036 33.3824C60.135 33.8005 60.3516 34.1867 60.6396 34.5164C60.9276 34.8462 61.2808 35.1123 61.6767 35.298C63.0916 34.789 64.3855 33.9906 65.4763 32.9533C66.5883 31.8859 67.5381 30.6605 68.2954 29.3164C68.5026 29.1074 68.6901 28.9918 68.8555 28.9672C69.0758 28.9307 69.3015 28.9834 69.4831 29.1135C69.579 29.1866 69.6584 29.2791 69.7162 29.3851C69.7741 29.491 69.8091 29.6079 69.8189 29.7283C69.8372 29.8736 69.8221 30.0212 69.7748 30.1598C69.3799 30.9782 68.9256 31.7664 68.4155 32.518C67.8535 33.3643 67.2217 34.1618 66.5267 34.9021C65.8648 35.6156 65.1247 36.252 64.3205 36.7992C63.6324 37.2869 62.8435 37.6126 62.0125 37.7521C60.6234 37.9562 59.4071 37.3164 58.3637 35.8328C57.3202 34.3492 56.5909 32.0389 56.1758 28.9021C56.005 27.6119 55.9127 25.8906 55.8988 23.7381C55.8887 21.5206 56.044 19.3054 56.3633 17.1111C56.6708 14.911 57.2082 12.7495 57.9665 10.6623C58.7134 8.63279 59.7577 7.07541 61.0994 5.99017C61.4941 5.64836 61.8716 5.45164 62.2381 5.39754C63.1647 5.2623 63.8535 5.55205 64.3046 6.26681C64.7515 6.97458 65.0385 7.77195 65.1454 8.60287C65.2215 9.16301 65.2543 9.72823 65.2434 10.2934C65.2238 10.8332 65.1944 11.3004 65.1442 11.6975ZM59.8909 16.0426C58.8365 19.9773 58.5198 24.0743 58.9569 28.125C59.3281 27.3631 59.6305 26.5694 59.8602 25.7533C60.0907 24.9385 60.3015 24.1074 60.4927 23.2598C60.7133 22.3746 60.9474 21.3357 61.195 20.143C61.4426 18.9504 61.6689 17.7266 61.874 16.4717C62.0783 15.2135 62.2258 13.9652 62.3165 12.7266C62.4088 11.6375 62.3907 10.5417 62.2626 9.45615C61.6181 10.4327 61.1273 11.5031 60.8077 12.6295C60.4841 13.7615 60.1785 14.8992 59.8909 16.0426Z" fill="#596064"/>
<path d="M76.4548 23.2119C76.4843 23.3742 76.4717 23.5415 76.4181 23.6975C76.4772 23.6896 76.5348 23.6722 76.5884 23.6459C76.6417 23.6183 76.6993 23.6004 76.7588 23.593C77.2221 23.525 77.5923 23.6402 77.8693 23.9385C78.1438 24.2361 78.3203 24.6639 78.3939 25.2197C78.3546 25.6893 78.2901 26.2852 78.2002 27.0074C78.1103 27.7295 78.0151 28.4815 77.9146 29.2635C77.8166 30.043 77.741 30.8098 77.6879 31.5639C77.6347 32.2192 77.6462 32.8781 77.7222 33.5311C77.7595 33.8306 77.8323 34.1245 77.9391 34.4065C78.4554 34.2832 78.9158 33.9902 79.2469 33.5742C79.6315 33.123 79.9915 32.6514 80.3255 32.1615C80.6663 31.6697 80.9776 31.2135 81.2607 30.7992C81.5439 30.3848 81.8172 30.1574 82.082 30.118C82.6127 30.0406 82.9167 30.2803 82.9902 30.8385C83.0137 31.0805 82.9757 31.3246 82.8799 31.5479C82.7377 31.7471 82.5085 32.1188 82.1923 32.6631C81.876 33.2074 81.5043 33.7774 81.0769 34.3734C80.6417 34.9752 80.1455 35.5302 79.5963 36.0295C79.0382 36.5385 78.4609 36.8365 77.8644 36.9234C77.6559 36.9618 77.4419 36.957 77.2353 36.9095C77.0287 36.8619 76.8341 36.7725 76.6632 36.6467C76.3115 36.3759 76.0298 36.0242 75.842 35.6213C75.6291 35.1841 75.4647 34.7248 75.3517 34.2516C75.2435 33.8055 75.158 33.3541 75.0955 32.8992C74.9248 33.1377 74.7005 33.4197 74.4226 33.7451C74.1448 34.0705 73.8417 34.3984 73.5132 34.7287C73.2056 35.0458 72.8714 35.3358 72.5142 35.5955C72.2493 35.8069 71.9387 35.9531 71.6072 36.0221C70.7443 36.1484 70.0089 35.9545 69.401 35.4406C68.793 34.9266 68.4196 34.1459 68.2807 33.0984C68.0855 31.6604 68.1053 30.2013 68.3395 28.7693C68.5487 27.4343 68.9303 26.1324 69.4745 24.8963C69.9967 23.7356 70.6222 22.782 71.3511 22.0352C72.0799 21.2885 72.8256 20.8594 73.5879 20.7479C73.9225 20.688 74.2661 20.7035 74.5939 20.7935C74.9217 20.8835 75.2254 21.0456 75.4829 21.268C76.0077 21.703 76.346 22.3236 76.4279 23.0016L76.4548 23.2119ZM71.1844 32.4111C71.8019 31.9191 72.3079 31.3009 72.6687 30.5975C73.0202 29.8948 73.3308 29.1723 73.599 28.4336C73.8711 27.6848 74.1444 26.9496 74.4214 26.2352C74.6869 25.5378 75.0632 24.888 75.5356 24.3111C75.1507 24.2262 74.9325 23.9729 74.8761 23.5549L74.7793 23.1959L73.5806 22.95C73.0305 23.4692 72.571 24.0772 72.2213 24.7488C71.8519 25.4555 71.5688 26.2044 71.378 26.9791C71.1757 27.7739 71.0526 28.5869 71.0103 29.4061C70.9654 30.203 70.9945 31.0024 71.0973 31.7938L71.1844 32.4111Z" fill="#596064"/>
</g>
<defs>
<clipPath id="clip0_323_258">
<rect width="83" height="48" fill="white"/>
</clipPath>
</defs>
</svg>
