<svg width="152" height="95" viewBox="0 0 152 95" fill="none" xmlns="http://www.w3.org/2000/svg">
<path d="M10.1529 19.4375C11.4388 17.0615 12.8909 14.7955 14.4964 12.6594C16.078 10.5484 17.8454 8.60872 19.7737 6.8677C21.6285 5.18741 23.6455 3.72861 25.7895 2.51662C27.8075 1.363 29.9908 0.58603 32.2475 0.218398C35.5564 -0.341933 38.9445 0.181784 41.9761 1.7222C45.0334 3.27217 47.8093 5.54853 50.3039 8.55128C52.7986 11.554 54.8832 15.1658 56.5577 19.3865C58.2577 23.6648 59.4 28.1781 59.9517 32.7968C60.6682 38.5406 60.7331 44.3577 60.1447 50.1185C59.5581 55.8293 58.5428 60.9229 57.0987 65.3995C56.1759 68.8246 54.812 72.0918 53.047 75.105C51.1854 78.3422 48.977 81.33 46.4677 84.0064C43.9546 86.7011 41.1108 89.0088 38.0164 90.8646C35.0225 92.6878 31.7461 93.9038 28.3485 94.4529C23.7797 95.1752 19.8395 94.925 16.5278 93.7022C13.2161 92.4794 10.4379 90.6767 8.19324 88.2943C5.92295 85.8784 4.14317 82.9767 2.96756 79.7744C1.73548 76.4954 0.893696 73.0602 0.462468 69.5514C-0.0667554 65.0997 -0.142031 60.5984 0.237998 56.1289C0.613841 51.4957 1.27829 46.8953 2.22681 42.359C3.12523 38.055 4.29982 33.824 5.74202 29.6969C6.95061 26.1523 8.42584 22.721 10.1529 19.4375ZM31.9018 52.2491C29.3545 52.6781 26.7598 52.6584 24.2182 52.1908C21.9392 51.7889 19.7546 50.9092 17.7871 49.6011C15.8994 48.308 14.3008 46.577 13.1069 44.5333C11.8514 42.4278 11.0418 39.8883 10.6781 36.9147C10.5434 35.8069 10.4537 34.6869 10.3886 33.5645C10.3371 32.3257 10.3942 31.0844 10.5592 29.8572C9.64809 32.7994 8.91256 35.8018 8.3571 38.846C7.78096 41.9557 7.33202 45.0937 7.01028 48.26C6.69468 51.366 6.53731 54.4885 6.53889 57.6133C6.52709 60.4559 6.68756 63.2963 7.01926 66.1162C7.36071 68.9835 7.97914 71.8041 8.86441 74.5317C9.64637 77.0279 10.8658 79.3376 12.4559 81.334C13.9802 83.2184 15.9165 84.6592 18.0879 85.5248C20.3206 86.4463 22.9881 86.6617 26.0903 86.171C31.3115 85.345 35.7395 83.1326 39.3745 79.5338C43.0385 75.8885 45.9769 71.4725 48.0099 66.5559C50.1662 61.3748 51.5939 55.8736 52.2456 50.2351C52.9424 44.7121 52.968 39.1142 52.3219 33.5839C51.9645 30.7021 51.3841 27.8577 50.5868 25.081C49.8283 22.3843 48.7147 19.82 47.2803 17.4672C45.8883 15.2067 44.1658 13.2063 42.1804 11.5443C40.1893 9.87531 37.8256 8.74563 35.0916 8.14314C34.6094 8.04019 34.1211 7.97524 33.6303 7.94879C33.1129 7.93378 32.5953 7.96874 32.0837 8.05325C29.8794 8.40309 27.8688 9.64209 26.0521 11.7703C24.169 14.0016 22.6269 16.544 21.4841 19.3014C20.2541 22.1951 19.3497 25.2383 18.7905 28.3656C18.2181 31.5238 18.0834 34.3103 18.3797 36.713C18.7104 39.4016 19.4003 41.465 20.4493 42.9032C21.3963 44.2532 22.6434 45.3221 24.0745 46.0104C25.5127 46.6612 27.0356 47.0661 28.5886 47.2105C30.2348 47.3725 31.8061 47.4769 33.3025 47.5239C34.4907 47.7166 35.1477 48.3216 35.2734 49.3387C35.4664 50.9081 34.7062 51.8288 32.9928 52.1009L31.9018 52.2491Z" fill="white"/>
<path d="M82.7869 29.2614C82.5995 32.2729 82.2516 35.2704 81.745 38.2391C81.1803 41.7435 80.4487 45.2901 79.5503 48.8789C78.6788 52.383 77.5861 55.8191 76.2797 59.1635C74.9963 62.4262 73.5995 65.022 72.0896 66.9511C72.3734 68.7253 72.7799 70.4742 73.3058 72.1834C73.5487 73.011 73.9488 73.7754 74.481 74.4281C75.0132 75.0808 75.6659 75.6076 76.3975 75.975C79.0113 74.9661 81.4021 73.3859 83.4188 71.3341C85.4718 69.2195 87.2268 66.7944 88.6282 64.1354C89.011 63.7217 89.3553 63.4929 89.6633 63.4442C89.8648 63.4081 90.071 63.4151 90.27 63.4648C90.469 63.5145 90.6569 63.6059 90.823 63.7338C91.0001 63.8785 91.1469 64.0616 91.2538 64.2713C91.3607 64.4809 91.4254 64.7124 91.4436 64.9507C91.4774 65.2383 91.4495 65.5305 91.362 65.8049C90.6309 67.4245 89.7906 68.9845 88.8479 70.4726C87.8089 72.1473 86.6414 73.7257 85.3576 75.1914C84.135 76.6045 82.7673 77.8642 81.2807 78.9465C80.0101 79.9118 78.553 80.5566 77.0181 80.8326C74.4512 81.2365 72.2028 79.9702 70.2731 77.0336C68.3433 74.0971 66.9882 69.5275 66.2075 63.325C65.8904 60.7713 65.7198 57.3642 65.6956 53.1037C65.6773 48.7137 65.9635 44.3283 66.5518 39.984C67.121 35.6301 68.1147 31.3526 69.5166 27.222C70.8937 23.2049 72.8234 20.1223 75.3058 17.9742C76.0336 17.2977 76.7342 16.9067 77.4077 16.8012C79.123 16.5384 80.3982 17.1119 81.2332 18.5218C82.0587 19.9231 82.5897 21.5011 82.7892 23.1457C82.9287 24.2553 82.9893 25.3748 82.9704 26.4944C82.9341 27.5506 82.8798 28.4729 82.7869 29.2614ZM73.0794 37.8619C71.1299 45.6499 70.5446 53.7594 71.3535 61.7772C72.0374 60.2685 72.5953 58.6975 73.0205 57.0827C73.4463 55.47 73.8366 53.8249 74.1914 52.1473C74.5991 50.3951 75.0317 48.3387 75.4893 45.978C75.9468 43.6174 76.3658 41.1984 76.7463 38.7209C77.1253 36.2305 77.3971 33.7596 77.5617 31.3081C77.7322 29.1522 77.6988 26.9833 77.462 24.8346C76.2722 26.7671 75.3662 28.8848 74.7758 31.1134C74.1763 33.3507 73.6109 35.6002 73.0794 37.8619Z" fill="white"/>
<path d="M89.8257 53.7819C90.4191 52.6195 90.988 51.995 91.5325 51.9082C92.1941 51.8001 92.6043 52.4083 92.763 53.7328C92.6948 57.2248 92.6102 60.4687 92.5094 63.4647C92.4085 66.4606 92.4686 68.8664 92.6896 70.6819C92.9225 72.6301 93.375 73.5854 94.047 73.5477C94.5292 73.692 95.0338 73.7205 95.5268 73.6312C96.9717 73.3971 98.5383 72.6473 100.227 71.3818C101.856 70.1819 103.264 68.653 104.379 66.8756C104.624 66.7215 104.888 66.6074 105.162 66.5367C105.365 66.5009 105.572 66.5133 105.77 66.573C105.968 66.6327 106.152 66.7384 106.31 66.883C106.477 67.0258 106.616 67.2038 106.72 67.4066C106.823 67.6094 106.889 67.833 106.913 68.0642C106.931 68.5296 106.826 68.9907 106.613 69.3927C103.894 72.8143 101.49 75.2782 99.4032 76.7843C97.3159 78.2905 95.4897 79.1712 93.9246 79.4266C92.1177 79.7197 90.7269 79.2523 89.7523 78.0244C88.7776 76.7966 88.1634 75.1374 87.9098 73.0468C87.4484 69.2192 87.4914 65.7509 88.0388 62.642C88.5862 59.5331 89.1819 56.5797 89.8257 53.7819ZM93.4017 33.8196C93.7334 34.2432 93.9542 34.7585 94.0403 35.3102C94.1245 35.898 94.0181 36.4997 93.7399 37.0095C93.6246 37.2427 93.462 37.4432 93.2647 37.5953C93.0674 37.7474 92.8408 37.847 92.6028 37.8862C92.1222 37.9648 91.6526 37.7757 91.2009 37.3165C90.7985 36.9583 90.5255 36.4531 90.431 35.8922C90.3627 35.3431 90.493 34.7865 90.7937 34.3426C90.9288 34.1212 91.1043 33.9333 91.3089 33.7908C91.5135 33.6483 91.7427 33.5544 91.982 33.5151C92.4731 33.4145 92.9805 33.5233 93.4017 33.8196Z" fill="white"/>
<path d="M118.865 23.6916C118.676 26.7025 118.328 29.6993 117.822 32.6676C117.255 36.1714 116.523 39.7174 115.625 43.3055C114.752 46.8065 113.657 50.2395 112.349 53.5808C111.063 56.8445 109.665 59.4399 108.157 61.367C108.434 63.143 108.835 64.8941 109.356 66.6056C109.599 67.4331 110 68.1973 110.533 68.8499C111.065 69.5025 111.719 70.0292 112.451 70.3965C115.068 69.3893 117.461 67.8092 119.479 65.7565C121.536 63.644 123.293 61.2191 124.693 58.5591C125.077 58.1455 125.423 57.9168 125.73 57.8681C126.137 57.7959 126.554 57.9 126.89 58.1576C127.068 58.3023 127.215 58.4854 127.322 58.695C127.429 58.9046 127.493 59.136 127.512 59.3742C127.545 59.6619 127.517 59.954 127.43 60.2283C126.699 61.8479 125.859 63.4077 124.916 64.8951C123.876 66.5698 122.707 68.148 121.422 69.613C120.198 71.0252 118.829 72.2846 117.341 73.3674C116.068 74.3327 114.609 74.9772 113.072 75.2532C110.503 75.6571 108.253 74.391 106.323 71.455C104.393 68.5189 103.044 63.947 102.276 57.7391C101.96 55.1859 101.789 51.7795 101.764 47.5198C101.745 43.1313 102.032 38.7474 102.623 34.4049C103.192 30.0511 104.186 25.7736 105.588 21.6429C106.97 17.6265 108.901 14.5445 111.383 12.3968C112.113 11.7204 112.811 11.3311 113.489 11.224C115.203 10.9564 116.477 11.5298 117.312 12.9443C118.138 14.345 118.669 15.9229 118.867 17.5673C119.008 18.6758 119.068 19.7944 119.048 20.913C119.012 21.9811 118.958 22.9057 118.865 23.6916ZM109.148 32.2905C107.197 40.0773 106.612 48.185 107.42 56.2014C108.107 54.6936 108.666 53.1228 109.091 51.5078C109.517 49.8954 109.907 48.2505 110.261 46.5733C110.669 44.8214 111.102 42.7653 111.56 40.4052C112.018 38.045 112.437 35.6231 112.816 33.1397C113.194 30.6497 113.467 28.1792 113.634 25.7282C113.805 23.5727 113.772 21.4042 113.535 19.256C112.342 21.1886 111.435 23.3068 110.844 25.536C110.245 27.7761 109.68 30.0276 109.148 32.2905Z" fill="white"/>
<path d="M140.082 45.3925C140.136 45.7134 140.113 46.0439 140.015 46.3522C140.123 46.3365 140.228 46.3021 140.326 46.2502C140.423 46.1956 140.528 46.1603 140.636 46.1457C141.48 46.0113 142.154 46.2388 142.659 46.8284C143.159 47.4163 143.481 48.2618 143.615 49.3599C143.543 50.288 143.425 51.4655 143.262 52.8924C143.098 54.3193 142.925 55.8054 142.742 57.3505C142.563 58.8908 142.425 60.406 142.328 61.8961C142.232 63.1909 142.253 64.493 142.391 65.7833C142.459 66.375 142.592 66.9557 142.786 67.5131C143.727 67.2694 144.565 66.6904 145.169 65.8683C145.869 64.9769 146.525 64.045 147.133 63.0769C147.754 62.1051 148.321 61.2037 148.837 60.385C149.353 59.5662 149.851 59.1168 150.333 59.039C151.3 58.886 151.854 59.3597 151.988 60.4627C152.03 60.9409 151.961 61.4232 151.787 61.8645C151.528 62.2581 151.11 62.9926 150.534 64.0681C149.958 65.1435 149.281 66.27 148.502 67.4475C147.709 68.6367 146.805 69.7334 145.805 70.72C144.788 71.7259 143.737 72.3146 142.65 72.4863C142.27 72.5622 141.88 72.5529 141.504 72.4589C141.128 72.3648 140.773 72.1882 140.462 71.9397C139.821 71.4045 139.308 70.7095 138.966 69.9135C138.578 69.0495 138.279 68.142 138.073 67.207C137.876 66.3254 137.72 65.4334 137.606 64.5346C137.295 65.0059 136.886 65.563 136.38 66.206C135.874 66.8491 135.322 67.4969 134.723 68.1496C134.163 68.7763 133.554 69.3493 132.904 69.8624C132.421 70.2802 131.855 70.569 131.251 70.7055C129.679 70.9549 128.34 70.5719 127.232 69.5563C126.125 68.5408 125.444 66.9981 125.191 64.9281C124.836 62.0868 124.872 59.2036 125.299 56.3739C125.68 53.7361 126.375 51.1635 127.366 48.721C128.317 46.4275 129.457 44.543 130.785 43.0675C132.112 41.592 133.471 40.7441 134.86 40.5238C135.469 40.4053 136.095 40.4361 136.692 40.6138C137.289 40.7916 137.842 41.1119 138.312 41.5515C139.268 42.4111 139.884 43.6374 140.033 44.9771L140.082 45.3925ZM130.481 63.57C131.606 62.598 132.528 61.3764 133.185 59.9865C133.825 58.598 134.391 57.1703 134.88 55.7106C135.375 54.2311 135.873 52.7782 136.378 51.3667C136.862 49.9885 137.547 48.7045 138.408 47.5645C137.706 47.3969 137.309 46.8964 137.206 46.0704L137.03 45.361L134.846 44.8751C133.844 45.9009 133.007 47.1024 132.37 48.4294C131.697 49.826 131.181 51.3057 130.834 52.8365C130.465 54.4071 130.241 56.0136 130.164 57.6323C130.082 59.207 130.135 60.7865 130.322 62.3504L130.481 63.57Z" fill="white"/>
</svg>
